<svg width="25" height="24" viewBox="0 0 25 24" fill="none" xmlns="http://www.w3.org/2000/svg">
<path d="M9.51977 14.7858C10.3008 15.5668 11.5671 15.5668 12.3482 14.7858L17.284 9.85C17.6706 9.4634 17.6706 8.8366 17.284 8.45C16.8974 8.0634 16.2706 8.0634 15.884 8.45L10.934 13.4L8.78398 11.25C8.39738 10.8634 7.77058 10.8634 7.38398 11.25C6.99739 11.6366 6.99739 12.2634 7.38398 12.65L9.51977 14.7858ZM7.33398 21C5.12485 21 3.33398 19.2091 3.33398 17V7C3.33398 4.79086 5.12485 3 7.33398 3H17.334C19.5431 3 21.334 4.79086 21.334 7V17C21.334 19.2091 19.5431 21 17.334 21H7.33398Z" fill="#00FF86"/>
</svg>
